<svg id="Layer_1" data-name="Layer 1" xmlns="http://www.w3.org/2000/svg" viewBox="0 0 384 384"><defs><style>.cls-1{fill:#fff;}</style></defs><path class="cls-1" d="M71.25,384H0V0H150.75a8,8,0,0,1-1.7.63c-49.27,7-78.44,55.11-61.79,102,.31.88.5,1.8.83,3-1.75,0-3.12,0-4.48,0-5,.16-8,3-8,7.45s3.1,7.37,8,7.55a68.7,68.7,0,0,0,8.61,0c3.28-.3,5.59.58,7.56,3.42a56.36,56.36,0,0,0,6.78,7.49q41.45,41.51,83,83c11.26,11.26,23.79,11.26,35.08,0q41.63-41.61,83.21-83.25c2.65-2.65,4.91-5.68,7.62-8.26a7.93,7.93,0,0,1,4.6-2.19c5.11-.28,10.24,0,15.36-.13s8.32-3.25,8.2-7.77-3.2-7.12-8.28-7.23c-3.05-.06-6.1,0-9.5,0,.6-1.9,1-3.2,1.43-4.47a75.79,75.79,0,0,0-47-96.94c-5.48-1.89-11.3-2.83-17-4.21H384V384H75.75q18.07-10.56,36.13-21.13c1.49-.88,3.43-1.77,4.06-3.16,1.45-3.22,4.07-3.22,6.78-3.38a148.13,148.13,0,0,1,55.05,7c27.2,8.83,54.58,9.12,81.75.16a146.81,146.81,0,0,0,25.25-11.22c23.22-13,46.17-26.42,69.16-39.79,15.18-8.82,19.76-26.8,10.63-41-8.43-13.11-25.13-17-39.27-8.89-20.81,11.91-41.53,24-62.3,35.93-1.85,1.06-3.78,2-6.06,3.13.15-1.06.17-1.43.26-1.78,4.48-18.38-4.23-33.21-22.42-38.19-12.88-3.52-25.77-7-38.6-10.66a14.4,14.4,0,0,1-5.7-3.21,82.29,82.29,0,0,0-108.06-4.33c-6.45,5.2-11.84,11.7-18,17.85-3.47-3.3-7.44-2.06-11.65.44-10.63,6.3-21.38,12.4-32.08,18.59-6.43,3.72-7.4,7.16-3.76,13.47q24.33,42.18,48.76,84.31C67,380.45,69.38,382.08,71.25,384Z" transform="translate(0 0)"/><path d="M263.25,0c5.66,1.38,11.48,2.32,17,4.21a75.79,75.79,0,0,1,47,96.94c-.45,1.27-.83,2.57-1.43,4.47,3.4,0,6.45-.05,9.5,0,5.08.11,8.17,2.84,8.28,7.23s-3.09,7.66-8.2,7.77-10.25-.15-15.36.13a7.93,7.93,0,0,0-4.6,2.19c-2.71,2.58-5,5.61-7.62,8.26q-41.57,41.65-83.21,83.25c-11.29,11.28-23.82,11.28-35.08,0Q148,173,106.55,131.51A56.36,56.36,0,0,1,99.77,124c-2-2.84-4.28-3.72-7.56-3.42a68.7,68.7,0,0,1-8.61,0c-4.94-.18-8-3.14-8-7.55s3.07-7.29,8-7.45c1.36,0,2.73,0,4.48,0-.33-1.22-.52-2.14-.83-3-16.65-46.86,12.52-95,61.79-102a8,8,0,0,0,1.7-.63H166.5a7.34,7.34,0,0,0,1.68.64A75,75,0,0,1,205.4,16.1a17.53,17.53,0,0,0,1.81,1.11l-.36-1.13c7.88-3.95,15.56-8.37,23.69-11.68,5.58-2.27,11.78-3,17.71-4.4ZM196.5,131.66c2.39-6.91,4.55-13.11,6.69-19.31q9.36-27.25,18.7-54.52c.12-.35.21-.72.32-1.07,1.12-3.69,3.36-6.26,7.39-6.35s6.28,2.33,7.67,6c5.86,15.39,11.86,30.72,17.73,46.11.79,2.07,1.66,3.2,4.2,3.18q23.44-.2,46.87,0c2.31,0,3.33-.93,4.21-2.78A61,61,0,0,0,214,31.27c-5.45,5-8.37,5-13.8.15C184.29,17.17,165.81,12.11,145,16.57,107,24.68,86.33,68,103.64,102.7c1,2,2,3,4.47,3,11.87-.15,23.74,0,35.61-.17a5.47,5.47,0,0,0,3.92-2.4c3.76-6.76,7.26-13.67,10.77-20.57,1.64-3.22,3.75-5.58,7.72-5.46S172,79.73,173.51,83q10.35,22.23,20.82,44.4C194.89,128.59,195.53,129.75,196.5,131.66Zm-79.37-11c1.53,1.62,2.35,2.53,3.22,3.4l80,80c5.1,5.09,8.19,5.1,13.31,0q40.43-40.4,80.83-80.84c.65-.65,1.2-1.41,2.18-2.58H292.4c-13.25,0-26.49,0-39.73,0-5.13,0-7.21-1.44-9.06-6.19-4-10.23-7.92-20.48-11.89-30.71-.38-1-.91-1.84-1.67-3.37-1.59,4.6-3,8.46-4.27,12.33q-10.32,30.08-20.64,60.16c-1.59,4.61-4.26,6.73-8,6.48s-5.66-2.63-7.13-5.78q-11.22-24.09-22.56-48.12c-.54-1.14-1.15-2.26-1.94-3.82-2.34,4.47-4.61,8.23-6.33,12.22-2.17,5.05-5.66,7-11.13,6.89C138.06,120.46,128.09,120.66,117.13,120.66Z" transform="translate(0 0)"/><path d="M71.25,384c-1.87-1.92-4.23-3.55-5.54-5.8Q41.19,336.13,17,293.89c-3.64-6.31-2.67-9.75,3.76-13.47,10.7-6.19,21.45-12.29,32.08-18.59,4.21-2.5,8.18-3.74,11.65-.44,6.13-6.15,11.52-12.65,18-17.85a82.29,82.29,0,0,1,108.06,4.33,14.4,14.4,0,0,0,5.7,3.21c12.83,3.67,25.72,7.14,38.6,10.66,18.19,5,26.9,19.81,22.42,38.19-.09.35-.11.72-.26,1.78,2.28-1.17,4.21-2.07,6.06-3.13,20.77-12,41.49-24,62.3-35.93,14.14-8.08,30.84-4.22,39.27,8.89,9.13,14.18,4.55,32.16-10.63,41-23,13.37-45.94,26.82-69.16,39.79a146.81,146.81,0,0,1-25.25,11.22c-27.17,9-54.55,8.67-81.75-.16a148.13,148.13,0,0,0-55.05-7c-2.71.16-5.33.16-6.78,3.38-.63,1.39-2.57,2.28-4.06,3.16q-18,10.61-36.13,21.13Zm2.34-107.35c.53,1,1.11,2.08,1.73,3.16,11.3,19.56,22.69,39.08,33.82,58.74,1.71,3,3.46,3.8,6.75,3.44,22.81-2.52,45,.17,66.89,7.2,27.7,8.91,55.29,8,81.94-3.69,12.17-5.36,23.55-12.55,35.16-19.14,15.75-8.93,31.38-18.06,47-27.14,5.27-3.06,7.77-7.71,7.07-13.78a12.86,12.86,0,0,0-8.79-11.14c-4.53-1.71-8.75-.79-12.89,1.61-20.29,11.79-40.59,23.57-61,35.17a92.32,92.32,0,0,1-14.93,6.84c-12.24,4.27-24.76,3.93-37.35,1.4-10.4-2.09-20.85-3.93-31.28-5.86-5.66-1-8.51-4.32-7.78-9s4.64-6.79,10.39-5.82c1.72.29,3.43.66,5.15,1,9.81,1.85,19.62,3.74,29.44,5.52,8.35,1.5,15.37-2.28,17.81-9.45,2.78-8.16-1.7-16.48-10.44-19-14.28-4-28.65-7.82-42.89-12a20.25,20.25,0,0,1-7.87-4.56c-18-16.9-39-23.25-63.16-17.91C98.34,246.68,83.94,259,73.59,276.65Zm2.46,89.58,23.87-13.8-43.5-75.3-23.84,13.8Z" transform="translate(0 0)"/><path class="cls-1" d="M248.25,0c-5.93,1.41-12.13,2.13-17.71,4.4-8.13,3.31-15.81,7.73-23.69,11.68l.36,1.13a17.53,17.53,0,0,1-1.81-1.11A75,75,0,0,0,168.18.64,7.34,7.34,0,0,1,166.5,0Z" transform="translate(0 0)"/><path class="cls-1" d="M196.5,131.66c-1-1.91-1.61-3.07-2.17-4.26Q183.9,105.2,173.51,83c-1.51-3.27-3.42-5.81-7.38-5.92s-6.08,2.24-7.72,5.46c-3.51,6.9-7,13.81-10.77,20.57a5.47,5.47,0,0,1-3.92,2.4c-11.87.18-23.74,0-35.61.17-2.45,0-3.49-1-4.47-3C86.33,68,107,24.68,145,16.57c20.86-4.46,39.34.6,55.24,14.85,5.43,4.86,8.35,4.87,13.8-.15a61,61,0,0,1,96.29,71.63c-.88,1.85-1.9,2.8-4.21,2.78q-23.43-.2-46.87,0c-2.54,0-3.41-1.11-4.2-3.18-5.87-15.39-11.87-30.72-17.73-46.11-1.39-3.65-3.66-6.06-7.67-6s-6.27,2.66-7.39,6.35c-.11.35-.2.72-.32,1.07q-9.34,27.26-18.7,54.52C201.05,118.55,198.89,124.75,196.5,131.66Z" transform="translate(0 0)"/><path class="cls-1" d="M117.13,120.66c11,0,20.93-.2,30.89.08,5.47.15,9-1.84,11.13-6.89,1.72-4,4-7.75,6.33-12.22.79,1.56,1.4,2.68,1.94,3.82q11.29,24,22.56,48.12c1.47,3.15,3.41,5.53,7.13,5.78s6.44-1.87,8-6.48q10.35-30.08,20.64-60.16c1.32-3.87,2.68-7.73,4.27-12.33.76,1.53,1.29,2.42,1.67,3.37,4,10.23,7.9,20.48,11.89,30.71,1.85,4.75,3.93,6.17,9.06,6.19,13.24,0,26.48,0,39.73,0h4.31c-1,1.17-1.53,1.93-2.18,2.58q-40.39,40.44-80.83,80.84c-5.12,5.12-8.21,5.11-13.31,0l-80-80C119.48,123.19,118.66,122.28,117.13,120.66Z" transform="translate(0 0)"/><path class="cls-1" d="M73.59,276.65c10.35-17.63,24.75-30,44.82-34.41,24.12-5.34,45.16,1,63.16,17.91a20.25,20.25,0,0,0,7.87,4.56c14.24,4.18,28.61,8,42.89,12,8.74,2.47,13.22,10.79,10.44,19-2.44,7.17-9.46,10.95-17.81,9.45-9.82-1.78-19.63-3.67-29.44-5.52-1.72-.32-3.43-.69-5.15-1-5.75-1-9.68,1.24-10.39,5.82s2.12,8,7.78,9c10.43,1.93,20.88,3.77,31.28,5.86,12.59,2.53,25.11,2.87,37.35-1.4a92.32,92.32,0,0,0,14.93-6.84c20.4-11.6,40.7-23.38,61-35.17,4.14-2.4,8.36-3.32,12.89-1.61A12.86,12.86,0,0,1,354,285.44c.7,6.07-1.8,10.72-7.07,13.78-15.66,9.08-31.29,18.21-47,27.14-11.61,6.59-23,13.78-35.16,19.14-26.65,11.73-54.24,12.6-81.94,3.69-21.85-7-44.08-9.72-66.89-7.2-3.29.36-5-.42-6.75-3.44C98,318.89,86.62,299.37,75.32,279.81,74.7,278.73,74.12,277.63,73.59,276.65Z" transform="translate(0 0)"/><path class="cls-1" d="M76.05,366.23l-43.47-75.3,23.84-13.8,43.5,75.3Z" transform="translate(0 0)"/></svg>